# xmcd
#
# Track frame offsets:
#   182
#   20250
#   46370
#   66682
#   86830
#   109455
#   126997
#   140292
#   167210
#
# Disc length: 2940 seconds
#
# Revision: 4
# Processed by: cddbd v1.5.1PL0 Copyright (c) Steve Scherf et al.
# Submitted via: Media_Universe 3.0
#
DISCID=860b7a09
DTITLE=Gladys Knight - Just For You
DYEAR=1900
DGENRE=R and B
TTITLE0=Next Time
TTITLE1=I Don't Want To Know
TTITLE2=I'll Fall In Love If You Hang Around
TTITLE3=Our Love
TTITLE4=Home Alone
TTITLE5=Choice Of Colors
TTITLE6=Guilty
TTITLE7=Somehow He Loves Me
TTITLE8=End Of The Road Medley
EXTD=
EXTT0=
EXTT1=
EXTT2=
EXTT3=
EXTT4=
EXTT5=
EXTT6=
EXTT7=
EXTT8=
PLAYORDER=
